<svg width="46" height="50" viewBox="0 0 46 50" fill="none" xmlns="http://www.w3.org/2000/svg">
<path d="M45.228 22.9648C44.7506 17.9862 42.6366 13.3061 39.2165 9.65677C35.7964 6.0074 31.2633 3.5945 26.326 2.79549L28.0987 1.50008C28.1824 1.44023 28.2534 1.36439 28.3076 1.27694C28.3618 1.18948 28.3982 1.09215 28.4146 0.990558C28.431 0.888969 28.427 0.78514 28.403 0.685073C28.3791 0.585005 28.3355 0.490685 28.2748 0.407562C28.2142 0.32444 28.1376 0.254165 28.0496 0.200798C27.9617 0.147431 27.864 0.112031 27.7622 0.0966449C27.6605 0.0812584 27.5567 0.0861904 27.4569 0.111156C27.357 0.136121 27.2632 0.180625 27.1806 0.242094L23.8402 2.67904C23.7573 2.73923 23.6871 2.81516 23.6335 2.9025C23.58 2.98984 23.5442 3.08688 23.5282 3.18806C23.5121 3.28925 23.5162 3.3926 23.5401 3.49221C23.5641 3.59182 23.6074 3.68574 23.6676 3.7686L26.2772 7.34501C26.4001 7.50952 26.583 7.6189 26.7861 7.64938C26.9891 7.67986 27.1961 7.629 27.3619 7.50782C27.5277 7.38665 27.639 7.20496 27.6716 7.00221C27.7043 6.79945 27.6556 6.59201 27.5362 6.42492L26.0058 4.32378C30.6177 5.05311 34.8563 7.2949 38.0548 10.6965C41.2534 14.0981 43.2303 18.4665 43.6748 23.1145C43.9384 25.8511 43.6603 28.6128 42.8566 31.242C42.0528 33.8712 40.739 36.3163 38.9903 38.4377C37.2415 40.5591 35.092 42.3153 32.6645 43.6059C30.237 44.8966 27.5791 45.6965 24.8425 45.9599C24.6357 45.9697 24.4412 46.0612 24.3019 46.2143C24.1626 46.3675 24.0898 46.5697 24.0996 46.7765C24.1094 46.9833 24.2009 47.1778 24.3541 47.3171C24.5072 47.4564 24.7095 47.5291 24.9163 47.5193C24.9415 47.5209 24.9669 47.5209 24.9922 47.5193C27.9333 47.2363 30.7899 46.3766 33.3988 44.9893C36.0076 43.602 38.3176 41.7143 40.1968 39.4341C42.076 37.1539 43.4875 34.5258 44.3508 31.7C45.214 28.8741 45.5121 25.9059 45.228 22.9648Z" fill="#585F76"/>
<path d="M19.4054 42.7435C19.2834 42.5764 19.1 42.4646 18.8956 42.4328C18.6911 42.4009 18.4824 42.4515 18.3153 42.5735C18.1482 42.6955 18.0365 42.8789 18.0046 43.0834C17.9727 43.2878 18.0233 43.4965 18.1453 43.6636L19.7048 45.7928C14.6581 45.0293 10.0646 42.4473 6.78904 38.5329C3.51347 34.6185 1.78181 29.6417 1.92007 24.5395C2.05833 19.4372 4.05697 14.5615 7.53973 10.8302C11.0225 7.09896 15.7491 4.76952 20.8297 4.28046C21.0356 4.26072 21.2251 4.16004 21.3567 4.00056C21.4883 3.84108 21.5512 3.63585 21.5315 3.43002C21.523 3.32758 21.494 3.22789 21.4463 3.13684C21.3985 3.04579 21.3331 2.96523 21.2537 2.89991C21.1743 2.83459 21.0827 2.78583 20.9841 2.75653C20.8856 2.72723 20.7822 2.71797 20.68 2.7293C15.2298 3.24889 10.1566 5.73975 6.41262 9.73436C2.6686 13.729 0.511187 18.9527 0.345291 24.4251C0.179395 29.8975 2.01643 35.2423 5.5116 39.4564C9.00677 43.6704 13.9198 46.464 19.3285 47.3128L17.5839 48.5874C17.5002 48.6473 17.4292 48.7231 17.375 48.8106C17.3208 48.898 17.2844 48.9953 17.268 49.0969C17.2516 49.1985 17.2556 49.3024 17.2795 49.4024C17.3035 49.5025 17.3471 49.5968 17.4078 49.6799C17.4684 49.7631 17.545 49.8333 17.6329 49.8867C17.7209 49.9401 17.8186 49.9755 17.9204 49.9908C18.0221 50.0062 18.1259 50.0013 18.2257 49.9763C18.3255 49.9514 18.4194 49.9069 18.5019 49.8454L21.8424 47.4095C21.9251 47.3492 21.9952 47.2731 22.0485 47.1857C22.1019 47.0983 22.1375 47.0012 22.1533 46.9C22.1691 46.7988 22.1649 46.6955 22.1408 46.596C22.1167 46.4965 22.0732 46.4027 22.0129 46.3199L19.4054 42.7435Z" fill="#585F76"/>
<path d="M11.3379 13.5449H34.334V36.541H11.3379V13.5449Z" fill="#FCBD55"/>
<path d="M14.5088 13.5449V26.9305C14.5088 28.8173 15.2583 30.6269 16.5925 31.9611C17.9267 33.2953 19.7363 34.0448 21.6231 34.0448H34.335V13.5449H14.5088Z" fill="#FCCA6E"/>
<path d="M19.666 13.5449H26.0069V20.3931H19.666V13.5449Z" fill="#FF953F"/>
<path d="M21.251 13.5449V16.8781C21.251 17.1904 21.3125 17.4998 21.432 17.7884C21.5516 18.077 21.7268 18.3392 21.9477 18.5601C22.1686 18.781 22.4308 18.9562 22.7194 19.0757C23.008 19.1953 23.3173 19.2568 23.6297 19.2568H26.0064V13.5449H21.251Z" fill="#FCAC44"/>
</svg>
