<svg width="38" height="38" viewBox="0 0 38 38" fill="none" xmlns="http://www.w3.org/2000/svg">
<path d="M18.984 0.0351562C15.2361 0.0351562 11.5723 1.14654 8.45604 3.22877C5.33976 5.311 2.91092 8.27055 1.47665 11.7332C0.0423903 15.1958 -0.332879 19.006 0.398303 22.6819C1.12948 26.3578 2.93428 29.7343 5.58445 32.3845C8.23463 35.0346 11.6112 36.8394 15.2871 37.5706C18.963 38.3018 22.7731 37.9265 26.2357 36.4923C29.6984 35.058 32.6579 32.6292 34.7401 29.5129C36.8224 26.3966 37.9338 22.7329 37.9338 18.9849C37.9338 16.4964 37.4436 14.0323 36.4913 11.7332C35.539 9.43408 34.1431 7.34507 32.3835 5.58542C30.6238 3.82577 28.5348 2.42994 26.2357 1.47762C23.9367 0.525307 21.4725 0.0351563 18.984 0.0351562ZM27.1324 14.4559L18.4723 25.8258C18.2958 26.0551 18.0691 26.241 17.8096 26.3691C17.5501 26.4972 17.2647 26.5642 16.9753 26.5649C16.6875 26.5664 16.4031 26.5024 16.1437 26.3776C15.8843 26.2528 15.6567 26.0706 15.4783 25.8448L10.8545 19.9514C10.7015 19.7548 10.5886 19.53 10.5225 19.2898C10.4563 19.0496 10.4381 18.7987 10.4689 18.5515C10.4997 18.3042 10.5789 18.0655 10.702 17.8489C10.825 17.6322 10.9895 17.442 11.1861 17.2889C11.5832 16.9799 12.0867 16.8411 12.586 16.9033C12.8333 16.9341 13.072 17.0133 13.2886 17.1364C13.5053 17.2594 13.6955 17.424 13.8486 17.6206L16.9374 21.5621L24.1004 12.0872C24.2522 11.8881 24.4417 11.7209 24.6582 11.5951C24.8746 11.4692 25.1137 11.3873 25.3618 11.3538C25.6099 11.3204 25.8622 11.3362 26.1042 11.4002C26.3462 11.4643 26.5733 11.5754 26.7723 11.7272C26.9714 11.879 27.1387 12.0685 27.2645 12.2849C27.3903 12.5014 27.4723 12.7405 27.5057 12.9886C27.5392 13.2367 27.5234 13.4889 27.4593 13.731C27.3953 13.973 27.2842 14.2 27.1324 14.3991V14.4559Z" fill="url(#paint0_linear_692_230113)"/>
<defs>
<linearGradient id="paint0_linear_692_230113" x1="18.984" y1="0.0351562" x2="18.984" y2="37.9347" gradientUnits="userSpaceOnUse">
<stop stop-color="#219653"/>
<stop offset="1" stop-color="#4BBD7C"/>
</linearGradient>
</defs>
</svg>
