<svg width="48" height="48" viewBox="0 0 48 48" fill="none" xmlns="http://www.w3.org/2000/svg">
<path d="M28.8656 20.0283H26.1495C27.3006 20.0283 28.2338 19.0952 28.2338 17.944V15.3207C28.2338 14.1695 27.3006 13.2363 26.1495 13.2363H3.60287C2.45179 13.2363 1.51854 14.1695 1.51854 15.3207V17.944C1.51854 19.0952 2.4517 20.0283 3.60287 20.0283H6.31902C5.16794 20.0283 4.23469 20.9615 4.23469 22.1127V24.736C4.23469 25.8839 5.16268 26.8149 6.30934 26.82H2.4564C1.30523 26.82 0.37207 27.7532 0.37207 28.9043V31.5276C0.37207 32.6788 1.30523 33.6119 2.4564 33.6119H4.3574C3.20623 33.6119 2.27307 34.5451 2.27307 35.6963V38.3196C2.27307 39.4708 3.20623 40.4039 4.3574 40.4039H2.93165C1.78048 40.4039 0.847321 41.3371 0.847321 42.4883V45.1116C0.847321 46.2628 1.78048 47.1959 2.93165 47.1959H25.4782C26.6293 47.1959 27.5626 46.2628 27.5626 45.1116V42.4883C27.5626 41.3371 26.6294 40.4039 25.4782 40.4039H26.904C28.0552 40.4039 28.9883 39.4708 28.9883 38.3196V35.6963C28.9883 34.5451 28.0552 33.6119 26.904 33.6119H25.003C26.1541 33.6119 27.0873 32.6788 27.0873 31.5276V28.9043C27.0873 27.7564 26.1593 26.8254 25.0127 26.8202H28.8656C30.0168 26.8202 30.9499 25.8871 30.9499 24.7359V22.1126C30.9499 20.9615 30.0168 20.0283 28.8656 20.0283Z" fill="#F1E64D"/>
<path d="M27.0844 29.8867V31.5443C27.0844 32.6953 26.1511 33.6278 25 33.6278H2.45356C1.30257 33.6278 0.369141 32.6954 0.369141 31.5443V29.8867C0.369141 31.0377 1.30248 31.9711 2.45356 31.9711H25C26.1511 31.9711 27.0844 31.0378 27.0844 29.8867Z" fill="#FFC250"/>
<path d="M30.9496 23.0996V24.7572C30.9496 25.9082 30.0163 26.8407 28.8652 26.8407H6.3188C5.16781 26.8407 4.23438 25.9083 4.23438 24.7572V23.0996C4.23438 24.2506 5.16772 25.184 6.3188 25.184H28.8652C30.0163 25.184 30.9496 24.2507 30.9496 23.0996Z" fill="#FFC250"/>
<path d="M28.2328 16.293V17.9506C28.2328 19.1016 27.2995 20.0341 26.1484 20.0341H3.602C2.45101 20.0341 1.51758 19.1017 1.51758 17.9506V16.293C1.51758 17.444 2.45092 18.3774 3.602 18.3774H26.1484C27.2995 18.3774 28.2328 17.444 28.2328 16.293Z" fill="#FFC250"/>
<path d="M28.9809 36.6738V38.3314C28.9809 39.4824 28.0475 40.4149 26.8965 40.4149H4.35005C3.19906 40.4149 2.26562 39.4825 2.26562 38.3314V36.6738C2.26562 37.8248 3.19897 38.7583 4.35005 38.7583H26.8965C28.0474 38.7583 28.9809 37.8248 28.9809 36.6738Z" fill="#FFC250"/>
<path d="M27.5561 43.4609V45.1185C27.5561 46.2695 26.6227 47.202 25.4716 47.202H2.92524C1.77425 47.202 0.84082 46.2696 0.84082 45.1185V43.4609C0.84082 44.6119 1.77416 45.5454 2.92524 45.5454H25.4716C26.6227 45.5453 27.5561 44.6119 27.5561 43.4609Z" fill="#FFC250"/>
<path d="M6.7799 26.832H10.654C9.50325 26.832 8.56991 25.8987 8.56991 24.748V22.1241C8.56991 20.9734 9.50325 20.04 10.654 20.04H7.93597C6.78609 20.039 5.85376 19.1062 5.85376 17.956V15.3321C5.85376 14.1814 6.7871 13.248 7.93781 13.248H3.60077C2.44904 13.248 1.5157 14.1814 1.5157 15.3321V17.956C1.5157 19.1067 2.44904 20.04 3.60077 20.04H6.31508C5.16418 20.0411 4.23186 20.9739 4.23186 22.1241V24.748C4.23186 25.8948 5.15901 26.8256 6.30548 26.8318H2.45421C1.30248 26.8318 0.369141 27.7651 0.369141 28.9158V31.5397C0.369141 32.6904 1.30248 33.6238 2.45421 33.6238H4.35309C3.20228 33.6249 2.27005 34.5578 2.27005 35.7078V38.3317C2.27005 39.4818 3.20228 40.4146 4.35309 40.4158H2.92946C1.77773 40.4158 0.844391 41.3491 0.844391 42.4998V45.1237C0.844391 46.2744 1.77773 47.2078 2.92946 47.2078H7.2665C6.11579 47.2078 5.18245 46.2744 5.18245 45.1237V42.4998C5.18245 41.3497 6.11468 40.417 7.26447 40.4158H8.69226C7.54154 40.4158 6.6082 39.4824 6.6082 38.3317V35.7078C6.6082 34.5571 7.54154 33.6238 8.69226 33.6238H6.78922C5.63943 33.6227 4.7072 32.6898 4.7072 31.5397V28.9158C4.70729 27.769 5.63445 26.8383 6.7799 26.832Z" fill="#FFC250"/>
<path d="M34.2649 47.2095C41.6421 47.2095 47.6226 41.2291 47.6226 33.8518C47.6226 26.4746 41.6421 20.4941 34.2649 20.4941C26.8877 20.4941 20.9072 26.4746 20.9072 33.8518C20.9072 41.2291 26.8877 47.2095 34.2649 47.2095Z" fill="#F1E64D"/>
<path d="M35.3946 47.1615C35.0227 47.1937 34.6457 47.2091 34.2647 47.2091C26.8872 47.2091 20.9072 41.2291 20.9072 33.8516C20.9072 26.4741 26.8872 20.4941 34.2647 20.4941C34.6456 20.4941 35.0227 20.5095 35.3946 20.5417C28.5447 21.1144 23.1657 26.8537 23.1657 33.8515C23.1657 40.8494 28.5447 46.5888 35.3946 47.1615Z" fill="#FFC250"/>
<path d="M34.263 42.8716C39.2445 42.8716 43.2828 38.8333 43.2828 33.8518C43.2828 28.8703 39.2445 24.832 34.263 24.832C29.2815 24.832 25.2432 28.8703 25.2432 33.8518C25.2432 38.8333 29.2815 42.8716 34.263 42.8716Z" fill="#FFC250"/>
<path d="M35.6592 33.1064C35.407 33.0329 35.1485 32.9557 34.891 32.8752V29.7163C35.6565 29.8294 36.1135 30.1518 36.148 30.1768C36.4613 30.4109 36.9053 30.3489 37.1424 30.0369C37.3805 29.7234 37.3194 29.2762 37.0059 29.0381C36.96 29.0032 36.1722 28.4196 34.891 28.2818V27.666C34.891 27.2723 34.5719 26.9531 34.1782 26.9531C33.7845 26.9531 33.4654 27.2723 33.4654 27.666V28.3276C33.3279 28.3508 33.1874 28.3797 33.0438 28.4153C31.8421 28.7135 30.9447 29.6304 30.7579 30.7513C30.6003 31.6968 30.9861 32.5965 31.7645 33.0995C32.1927 33.3761 32.7282 33.6298 33.4654 33.8987V37.8999C32.7253 37.8687 32.2361 37.744 31.431 37.3103C31.0842 37.1235 30.6519 37.2532 30.4653 37.5998C30.2786 37.9464 30.4081 38.3788 30.7548 38.5655C31.819 39.1389 32.508 39.2928 33.4654 39.3265V40.0265C33.4654 40.4202 33.7845 40.7394 34.1782 40.7394C34.5719 40.7394 34.891 40.4202 34.891 40.0265V39.2802C36.769 38.9997 37.9134 37.6663 38.0972 36.3518C38.3041 34.8716 37.3472 33.5977 35.6592 33.1064ZM32.538 31.9018C32.1089 31.6246 32.1336 31.1687 32.1642 30.9856C32.2384 30.5402 32.5986 29.9946 33.387 29.799C33.4134 29.7925 33.4393 29.787 33.4654 29.7811V32.3693C33.1117 32.2222 32.7931 32.0666 32.538 31.9018ZM36.6853 36.1542C36.5851 36.8705 35.9498 37.5953 34.891 37.8296V34.3659C35.0108 34.4019 35.1332 34.4382 35.2606 34.4753C36.274 34.7702 36.7931 35.3822 36.6853 36.1542Z" fill="#F1E64D"/>
<path d="M18.4352 28.9631V17.9665H20.3149C22.597 17.9665 24.0233 15.4959 22.8821 13.5197L16.8574 3.08564C15.7164 1.10954 12.8641 1.10944 11.723 3.08555L5.69764 13.5196C4.55633 15.4959 5.98264 17.9666 8.26478 17.9666H10.1454V28.9632C10.1454 29.9935 10.9807 30.8287 12.0109 30.8287H16.5696C17.6 30.8286 18.4352 29.9935 18.4352 28.9631Z" fill="#95D6A4"/>
<path d="M13.7272 30.8282H12.0107C10.9808 30.8282 10.1458 29.9933 10.1458 28.9632V17.9654H8.26454C5.9824 17.9654 4.556 15.4953 5.69804 13.5186L11.7225 3.08481C12.2931 2.09694 13.2915 1.60352 14.2899 1.60352C13.6211 1.60352 12.9522 2.09694 12.5706 3.08481L8.53441 13.5186C7.76918 15.4953 8.72521 17.9655 10.2537 17.9655H11.0266C11.8278 17.9655 12.4772 18.6149 12.4772 19.416V28.9623C12.4772 29.9926 13.0372 30.8282 13.7272 30.8282Z" fill="#78C2A4"/>
<path d="M35.1596 15.1576L35.1051 14.9542C34.9128 14.2365 35.309 13.4925 36.0117 13.2516L38.1735 12.5105C38.9478 12.245 39.785 12.6908 39.9968 13.4815L40.1322 13.9871C40.3441 14.7778 39.842 15.5825 39.0387 15.7398L36.7961 16.1788C36.067 16.3214 35.3519 15.8752 35.1596 15.1576Z" fill="#F7F493"/>
<path d="M31.7035 9.06933L31.5546 8.92041C31.0292 8.39506 31.0003 7.5527 31.4885 6.99256L32.9901 5.26981C33.5279 4.65275 34.4759 4.62027 35.0547 5.19905L35.4248 5.56921C36.0036 6.14798 35.9711 7.09599 35.3541 7.6338L33.6312 9.13539C33.0712 9.62356 32.2288 9.59468 31.7035 9.06933Z" fill="#F7F493"/>
<path d="M25.6661 5.52501L25.4627 5.47049C24.745 5.27821 24.2988 4.56307 24.4416 3.834L24.8806 1.59135C25.0378 0.788009 25.8425 0.28591 26.6332 0.49784L27.1388 0.633283C27.9295 0.845121 28.3753 1.68232 28.1099 2.4566L27.3687 4.61834C27.1277 5.32111 26.3837 5.71729 25.6661 5.52501Z" fill="#F7F493"/>
</svg>
