<svg width="43" height="50" viewBox="0 0 43 50" fill="none" xmlns="http://www.w3.org/2000/svg">
<path d="M28.4483 0H2.58621C1.15841 0 0 1.15841 0 2.58621V47.4138C0 48.8416 1.15841 50 2.58621 50H35.3448C36.7726 50 37.931 48.8416 37.931 47.4138V9.48276L28.4483 0Z" fill="#B1ECFB"/>
<path d="M33.9062 41.1281L31.15 38.3719C30.8133 38.0353 30.8133 37.4895 31.15 37.1529C31.4867 36.8162 32.0325 36.8162 32.3691 37.1529L35.1252 39.909C35.462 40.2456 35.462 40.7914 35.1252 41.1281C34.7885 41.4647 34.2428 41.4647 33.9062 41.1281Z" fill="#42434D"/>
<path d="M35.9537 7.50539C17.4902 13.2895 6.25889 28.8269 2.38281 47.6685C2.09488 49.0684 0.0199892 48.879 0.000269337 47.45C-0.000161697 47.4204 5.39385e-05 2.55657 5.39385e-05 2.58621C5.39385e-05 1.15787 1.15792 0 2.58626 0H28.4483L35.9537 7.50539Z" fill="#D6F4FC"/>
<path d="M37.931 9.48276H31.0344C29.6066 9.48276 28.4482 8.32435 28.4482 6.89655V0L37.931 9.48276Z" fill="#BDEFFC"/>
<path d="M37.931 9.48276H31.0344C29.6066 9.48276 28.4482 8.32435 28.4482 6.89655V0L37.931 9.48276Z" fill="#E8F8FC"/>
<path d="M42.0457 44.3913C43.0564 45.401 43.0564 47.0389 42.0457 48.0486C41.041 49.0554 39.4017 49.062 38.3883 48.0486L33.2964 42.9567C32.9598 42.62 32.9598 42.0741 33.2964 41.7375L35.7346 39.2994C36.0712 38.9627 36.6171 38.9627 36.9538 39.2994L42.0457 44.3913Z" fill="#18202E"/>
<path d="M25.0542 40.5166C30.3212 40.5166 34.5909 36.2469 34.5909 30.98C34.5909 25.7131 30.3212 21.4434 25.0542 21.4434C19.7873 21.4434 15.5176 25.7131 15.5176 30.98C15.5176 36.2469 19.7873 40.5166 25.0542 40.5166Z" fill="#E3F7FC"/>
<path d="M25.533 25.0532C22.5259 26.0155 20.0782 28.4833 19.129 31.4962C18.503 33.4836 15.4482 33.1528 15.5218 30.6873C15.6729 25.6293 19.8288 21.5065 24.9337 21.4435C27.0586 21.4173 27.5569 24.4055 25.533 25.0532Z" fill="#F2FAFC"/>
<path d="M39.7755 46.7467C40.6384 47.6104 39.3873 48.9576 38.4824 48.1381C38.4071 48.07 33.2248 42.8852 33.2966 42.9568C32.9597 42.62 32.9597 42.0739 33.2966 41.737L35.7341 39.2995C36.0709 38.9627 36.6171 38.9627 36.9539 39.2995C37.361 39.7066 37.361 40.3665 36.9539 40.7737L35.9906 41.737C35.6537 42.0739 35.6541 42.6204 35.991 42.9573C37.8051 44.7715 38.9898 45.9603 39.7755 46.7467Z" fill="#242E40"/>
<path d="M20.2754 30.0238C19.8325 29.849 19.6152 29.3484 19.7899 28.9055C20.2867 27.6461 21.2212 26.6045 22.4211 25.9726C22.8424 25.7506 23.3638 25.9124 23.5855 26.3336C23.8074 26.755 23.6458 27.2763 23.2246 27.4982C22.3894 27.9379 21.7392 28.6625 21.3937 29.5383C21.2189 29.9813 20.718 30.1984 20.2754 30.0238Z" fill="white"/>
<path d="M15.5174 8.29836H8.29762C7.82154 8.29836 7.43555 7.91237 7.43555 7.43629C7.43555 6.96021 7.82154 6.57422 8.29762 6.57422H15.5174C15.9935 6.57422 16.3795 6.96021 16.3795 7.43629C16.3795 7.91237 15.9935 8.29836 15.5174 8.29836Z" fill="#5A7184"/>
<path d="M20.5821 16.7573H8.29762C7.82154 16.7573 7.43555 16.3713 7.43555 15.8953C7.43555 15.4192 7.82154 15.0332 8.29762 15.0332H20.5821C21.0582 15.0332 21.4442 15.4192 21.4442 15.8953C21.4442 16.3713 21.0582 16.7573 20.5821 16.7573Z" fill="#5A7184"/>
<path d="M11.2071 25.2163H8.29762C7.82154 25.2163 7.43555 24.8303 7.43555 24.3543C7.43555 23.8782 7.82154 23.4922 8.29762 23.4922H11.2071C11.6832 23.4922 12.0692 23.8782 12.0692 24.3543C12.0692 24.8303 11.6832 25.2163 11.2071 25.2163Z" fill="#5A7184"/>
<path d="M11.2071 33.8355H8.29762C7.82154 33.8355 7.43555 33.4495 7.43555 32.9734C7.43555 32.4973 7.82154 32.1113 8.29762 32.1113H11.2071C11.6832 32.1113 12.0692 32.4973 12.0692 32.9734C12.0692 33.4495 11.6832 33.8355 11.2071 33.8355Z" fill="#5A7184"/>
</svg>
